# Blender 4.4.3
# www.blender.org
o Cube
v -1.000000 1.000000 1.000000
v -1.000000 -1.000000 1.000000
v -1.000000 1.000000 -1.000000
v -1.000000 -1.000000 -1.000000
v 1.000000 1.000000 1.000000
v 1.000000 -1.000000 1.000000
v 1.000000 1.000000 -1.000000
v 1.000000 -1.000000 -1.000000
vn -0.5774 0.5773 0.5773
vn -0.5773 -0.5774 0.5774
vn -0.5773 0.5774 -0.5774
vn -0.5774 -0.5773 -0.5773
vn 0.5773 0.5774 0.5774
vn 0.5774 -0.5773 0.5773
vn 0.5774 0.5773 -0.5773
vn 0.5773 -0.5774 -0.5774
s 1
f 5//5 3//3 1//1
f 3//3 8//8 4//4
f 7//7 6//6 8//8
f 2//2 8//8 6//6
f 1//1 4//4 2//2
f 5//5 2//2 6//6
f 5//5 7//7 3//3
f 3//3 7//7 8//8
f 7//7 5//5 6//6
f 2//2 4//4 8//8
f 1//1 3//3 4//4
f 5//5 1//1 2//2
